<?xml version="1.0" standalone="no"?>
<!DOCTYPE svg PUBLIC "-//W3C//DTD SVG 20010904//EN"
 "http://www.w3.org/TR/2001/REC-SVG-20010904/DTD/svg10.dtd">
<svg version="1.0" xmlns="http://www.w3.org/2000/svg"
 width="450.000000pt" height="441.000000pt" viewBox="0 0 450.000000 441.000000"
 preserveAspectRatio="xMidYMid meet">

<g transform="translate(0.000000,441.000000) scale(0.100000,-0.100000)"
fill="#000000" stroke="none">
<path d="M2307 3333 c-4 -3 -7 -15 -7 -25 0 -16 -7 -17 -87 -12 -160 11 -291
-32 -383 -125 -61 -61 -94 -133 -106 -226 -15 -128 87 -360 209 -472 50 -46
103 -73 221 -113 53 -18 73 -29 61 -34 -50 -19 -162 6 -282 63 l-82 39 -30
-126 c-17 -70 -36 -157 -42 -193 l-12 -66 43 -81 43 -81 126 -42 c116 -39 136
-42 256 -47 100 -3 145 -1 194 12 217 56 349 199 359 391 4 70 0 92 -28 178
-37 109 -82 189 -152 270 -46 53 -53 57 -238 145 -21 11 -16 12 40 8 54 -3
143 -27 221 -60 12 -5 21 17 46 126 17 73 37 163 44 200 l12 66 -38 74 c-20
40 -43 78 -49 84 -6 7 -77 21 -158 33 -162 23 -172 24 -181 14z m196 -44 c88
-11 97 -14 97 -33 0 -23 -64 -294 -71 -300 -2 -3 -42 7 -89 21 -162 48 -291
33 -321 -38 -27 -67 12 -113 121 -146 254 -75 338 -130 397 -258 23 -50 27
-73 27 -145 0 -76 -4 -93 -34 -158 -52 -114 -151 -193 -283 -228 -117 -31
-339 -11 -474 43 -55 22 -63 28 -63 52 0 30 54 268 62 277 4 3 23 -3 45 -14
51 -26 156 -58 219 -67 63 -8 128 8 160 40 28 29 32 88 8 123 -18 26 -75 57
-124 66 -111 22 -258 89 -323 147 -28 24 -54 61 -72 100 -25 56 -27 70 -23
153 3 80 8 99 38 155 40 75 102 128 187 163 51 20 76 23 196 23 118 0 137 2
137 16 0 25 12 31 50 26 19 -3 79 -11 133 -18z"/>
<path d="M3200 1591 l-45 -6 -3 -162 -2 -161 26 -21 c22 -17 41 -21 100 -21
40 0 79 3 88 6 19 7 22 54 4 55 -7 0 -44 2 -83 2 l-70 2 -3 46 -3 46 47 7 c26
3 61 6 79 6 37 0 60 22 51 46 -6 15 -18 16 -92 11 l-86 -6 6 42 c4 23 12 45
19 50 7 4 46 6 87 5 71 -3 75 -2 78 19 6 39 -66 52 -198 34z"/>
<path d="M1883 1578 c-4 -7 -6 -83 -5 -168 1 -85 2 -160 2 -166 0 -7 8 -15 17
-18 32 -13 43 21 43 133 l1 106 41 -50 c74 -88 174 -185 192 -185 27 0 36 43
36 175 0 142 -9 178 -43 173 -22 -3 -22 -5 -19 -128 l4 -125 -52 50 c-28 28
-70 75 -93 105 -80 107 -105 127 -124 98z"/>
<path d="M2590 1564 c-6 -14 -10 -90 -10 -170 0 -120 3 -146 15 -150 28 -11
45 16 45 71 l0 52 40 6 c54 7 89 31 107 74 32 78 -30 143 -135 143 -47 0 -53
-3 -62 -26z m134 -54 c27 -27 9 -66 -36 -78 -42 -12 -48 -8 -48 31 0 62 10 79
39 72 14 -3 35 -15 45 -25z"/>
<path d="M1566 1563 c-4 -10 6 -36 25 -67 18 -28 46 -72 62 -99 l30 -47 -23
-49 c-24 -52 -21 -71 10 -71 25 0 52 43 124 199 50 109 55 126 42 139 -24 25
-45 6 -82 -75 -41 -89 -33 -91 -105 25 -39 63 -70 80 -83 45z"/>
<path d="M1362 1553 c-64 -31 -93 -101 -56 -137 17 -17 33 -22 109 -30 56 -7
80 -28 65 -56 -22 -40 -129 -54 -157 -20 -10 11 -28 20 -40 20 -19 0 -23 -5
-23 -30 0 -65 124 -93 219 -50 54 25 70 45 71 88 0 65 -44 102 -120 102 -50 0
-81 15 -74 35 8 21 68 37 108 29 35 -6 66 7 66 27 0 16 -59 39 -97 39 -21 0
-53 -8 -71 -17z"/>
<path d="M2414 1548 c-11 -13 -40 -54 -64 -93 -24 -38 -48 -74 -54 -80 -15
-14 -38 -75 -40 -105 -1 -19 5 -26 21 -28 18 -3 27 6 45 42 21 44 24 46 65 48
24 0 48 1 54 2 6 1 19 -19 28 -44 14 -37 21 -45 41 -45 34 0 35 -9 -38 290
-10 37 -32 42 -58 13z m16 -112 c0 -8 3 -21 6 -30 5 -13 -1 -16 -25 -16 l-32
0 16 30 c16 31 35 40 35 16z"/>
<path d="M2935 1556 c-40 -17 -85 -71 -85 -100 0 -37 32 -57 106 -66 75 -9
106 -29 88 -58 -28 -44 -127 -58 -159 -22 -34 37 -72 21 -61 -25 14 -56 142
-73 230 -30 107 51 62 185 -63 185 -54 0 -76 12 -68 34 10 25 56 38 109 31 39
-6 49 -4 54 10 4 9 0 23 -9 32 -21 21 -104 27 -142 9z"/>
</g>
</svg>
