<?xml version="1.0" standalone="no"?>
<!DOCTYPE svg PUBLIC "-//W3C//DTD SVG 20010904//EN"
 "http://www.w3.org/TR/2001/REC-SVG-20010904/DTD/svg10.dtd">
<svg version="1.0" xmlns="http://www.w3.org/2000/svg"
 width="500.000000pt" height="500.000000pt" viewBox="0 0 500.000000 500.000000"
 preserveAspectRatio="xMidYMid meet">

<g transform="translate(0.000000,500.000000) scale(0.100000,-0.100000)"
fill="#000000" stroke="none">
<path d="M2260 4480 c-412 -62 -764 -226 -1089 -504 -287 -247 -520 -627 -615
-1001 -40 -159 -56 -297 -56 -475 0 -323 65 -593 211 -880 304 -599 886 -1006
1579 -1106 177 -25 532 -15 695 20 326 69 627 203 878 389 100 74 268 236 350
337 545 676 596 1585 127 2304 -92 141 -164 229 -286 346 -305 295 -680 486
-1100 561 -173 31 -519 36 -694 9z m370 -1429 c28 -11 66 -31 83 -44 66 -50
109 -172 93 -260 -12 -62 -62 -123 -152 -183 -46 -31 -84 -57 -84 -59 0 -1 43
-28 96 -60 130 -78 164 -108 164 -150 0 -41 -39 -91 -78 -100 -43 -9 -98 16
-280 125 -143 86 -191 110 -192 98 -8 -86 -32 -214 -44 -233 -20 -30 -59 -41
-92 -26 -45 20 -54 63 -54 261 0 190 9 304 40 483 23 138 34 151 111 143 33
-4 68 -2 85 5 87 33 216 33 304 0z m729 18 c28 -6 65 -20 83 -32 53 -35 89
-125 63 -155 -2 -2 -43 6 -92 19 -103 26 -154 22 -235 -19 -41 -21 -54 -33
-56 -54 -4 -34 30 -60 177 -133 139 -69 207 -131 239 -218 53 -142 5 -255
-128 -302 -23 -8 -85 -20 -136 -26 -106 -13 -137 -6 -204 42 -143 103 -81 257
86 213 79 -20 204 -16 204 7 0 5 -13 24 -30 42 -20 23 -58 46 -118 71 -98 40
-190 108 -237 174 -27 39 -30 52 -30 116 0 62 4 78 28 114 75 114 237 173 386
141z m-1452 -20 c87 -27 98 -136 18 -174 -24 -11 -66 -15 -154 -15 -96 0 -121
-3 -121 -14 0 -7 11 -101 25 -209 42 -335 35 -431 -37 -461 -61 -26 -113 1
-137 73 -7 22 -11 132 -11 316 l0 283 -82 7 c-96 9 -118 16 -147 46 -26 29
-27 59 -1 92 24 31 71 41 250 57 69 5 141 12 160 14 53 5 201 -4 237 -15z
m1948 -12 c58 -49 71 -267 36 -604 -20 -198 -34 -240 -84 -257 -45 -16 -79 3
-107 59 l-25 50 0 310 c1 344 9 403 61 444 35 28 86 27 119 -2z"/>
<path d="M2435 2910 c-48 -7 -93 -30 -120 -60 -16 -17 -21 -40 -24 -101 l-3
-80 28 6 c154 35 250 77 287 127 23 31 17 72 -14 88 -30 17 -108 26 -154 20z"/>
</g>
</svg>
