<?xml version="1.0" standalone="no"?>
<!DOCTYPE svg PUBLIC "-//W3C//DTD SVG 20010904//EN"
 "http://www.w3.org/TR/2001/REC-SVG-20010904/DTD/svg10.dtd">
<svg version="1.0" xmlns="http://www.w3.org/2000/svg"
 width="500.000000pt" height="500.000000pt" viewBox="0 0 500.000000 500.000000"
 preserveAspectRatio="xMidYMid meet">

<g transform="translate(0.000000,500.000000) scale(0.100000,-0.100000)"
fill="#000000" stroke="none">
<path d="M2303 3145 c-242 -62 -441 -240 -518 -461 -36 -105 -45 -275 -21
-379 27 -115 88 -225 176 -318 91 -96 182 -154 314 -200 87 -31 97 -32 246
-32 149 0 159 1 246 32 132 46 223 104 314 200 139 147 196 298 187 503 -8
193 -63 315 -207 460 -65 65 -105 96 -168 129 -176 90 -382 115 -569 66z m-53
-484 c18 -5 25 -14 25 -31 0 -23 -4 -25 -52 -28 -60 -3 -57 4 -42 -111 14
-100 8 -131 -25 -131 -32 0 -36 15 -36 136 l0 104 -34 0 c-40 0 -66 24 -47 43
18 18 165 31 211 18z m292 -20 c25 -22 32 -36 32 -66 0 -32 -6 -43 -39 -71
-43 -37 -43 -37 18 -70 20 -11 27 -22 25 -37 -5 -36 -42 -32 -115 12 l-68 41
-7 -42 c-9 -52 -22 -66 -44 -47 -15 12 -16 29 -11 129 7 143 15 167 59 173 93
11 117 8 150 -22z m262 8 c38 -30 32 -39 -22 -32 -53 6 -92 -8 -92 -32 0 -8
25 -29 55 -46 68 -38 95 -71 95 -115 0 -41 -31 -64 -95 -72 -50 -5 -95 16 -95
46 0 32 19 41 76 35 48 -5 54 -4 48 11 -4 9 -25 26 -48 38 -111 55 -128 128
-41 173 42 21 87 19 119 -6z m161 -42 c7 -42 -8 -218 -20 -237 -10 -16 -34
-11 -45 9 -5 11 -10 71 -10 133 0 87 4 119 16 136 23 33 51 14 59 -41z"/>
<path d="M2417 2608 c-9 -7 -20 -28 -23 -45 -6 -29 -4 -33 15 -33 34 0 88 26
100 49 9 16 8 22 -8 31 -26 14 -64 13 -84 -2z"/>
</g>
</svg>
